<svg width="71" height="107" viewBox="0 0 71 107" fill="none" xmlns="http://www.w3.org/2000/svg">
<path d="M26.7816 28.5442C18.5483 35.0188 10.4736 43.6183 7.67095 56.6558C5.17629 68.2614 11.1176 78.8938 17.079 85.9212C24.519 94.6848 33.9963 100.485 43.3443 104.064C49.4136 106.39 58.2163 108.557 63.547 102.372C74.247 89.9648 69.4643 63.2723 66.4096 47.4279C64.5576 37.8184 61.3149 27.0809 54.1496 23.0115C44.7963 17.7017 35.7403 23.1479 26.931 27.9084C25.9417 28.4429 26.371 30.6711 27.3737 30.1292C34.6577 26.1925 41.7563 21.7343 49.7776 23.4962C58.2696 25.3595 62.4017 36.3697 64.531 46.6814C67.571 61.4017 70.7763 80.5193 65.7883 95.0202C58.7389 115.513 32.8989 97.4807 23.7776 89.751C16.4083 83.505 9.22697 74.43 8.85897 61.7113C8.44964 47.4924 19.8377 36.6535 27.623 30.5347C28.5564 29.7993 27.7176 27.8089 26.7816 28.5442Z" fill="#324398"/>
<path d="M26.9303 27.9084C15.085 34.3977 13.877 11.9976 8.53171 2.97777C8.19438 3.58229 7.85704 4.18497 7.52104 4.78764C14.533 11.6308 24.3996 16.1905 25.9703 29.3939C26.145 30.8573 27.7503 30.2343 27.5769 28.782C25.9209 14.8635 15.7597 10.0163 8.36238 2.79716C7.53171 1.98807 6.797 3.67077 7.353 4.60887C13.2037 14.4783 14.3117 37.2839 27.373 30.1293C28.3597 29.5893 27.9303 27.3592 26.9303 27.9084Z" fill="#324398"/>
<path d="M27.8107 27.1493C26.0333 18.6898 25.74 9.75484 29.56 2.26663C29.0787 2.26663 28.6 2.26663 28.12 2.26663C31.3707 9.6461 31.2454 21.5778 26.9401 28.1371C26.2201 29.2356 27.396 30.8704 28.12 29.7682C32.9321 22.4293 33.2147 9.40096 29.56 1.10367C29.2147 0.320385 28.4774 0.403322 28.12 1.10367C24.0627 9.05816 24.3107 18.7524 26.204 27.7612C26.504 29.184 28.112 28.5776 27.8107 27.1493Z" fill="#324398"/>
<path d="M26.6116 28.7233C18.8649 38.0268 7.87291 36.1673 1.40757 25.4409C1.2849 26.0841 1.1622 26.7255 1.03954 27.3669C5.08087 25.4575 9.67023 21.7899 14.0356 23.4007C15.0742 23.784 15.5169 21.5632 14.4782 21.1798C9.69554 19.4142 5.02756 23.0523 0.596893 25.146C-0.0284401 25.4409 -0.181742 26.39 0.228925 27.072C7.30493 38.8101 19.4049 40.4246 27.7916 30.3544C28.6036 29.3776 27.4183 27.7557 26.6116 28.7233Z" fill="#324398"/>
<path d="M13.2812 57.3725C13.9092 59.0805 14.9879 60.2265 16.0612 61.3744C16.9012 62.2717 18.0892 60.654 17.2412 59.7456C16.2839 58.723 15.2799 57.7336 14.7213 56.2117C14.2346 54.8869 12.7959 56.0532 13.2812 57.3725Z" fill="#324398"/>
<path d="M26.3573 44.1823C27.616 45.5737 28.5107 47.3855 29.4001 49.2174C29.9961 50.4431 31.44 49.2911 30.84 48.0545C29.876 46.0732 28.8973 44.0606 27.5373 42.5511C26.7066 41.6333 25.52 43.2515 26.3573 44.1823Z" fill="#324398"/>
<path d="M44.1918 32.2266C45.2878 33.0099 46.0451 34.2539 46.5091 35.8297C46.9078 37.1861 48.5197 36.5946 48.1157 35.2178C47.4904 33.0947 46.5305 31.3088 45.0332 30.2362C44.0798 29.5543 43.2384 31.5429 44.1918 32.2266Z" fill="#324398"/>
<path d="M26.443 61.661C27.3817 63.1533 28.3524 64.6162 29.6377 65.5448C30.5897 66.2301 31.4324 64.2422 30.4791 63.555C29.3164 62.7167 28.4698 61.3809 27.6231 60.0305C26.9164 58.9066 25.7417 60.5427 26.443 61.661Z" fill="#324398"/>
<path d="M39.6303 50.845C40.625 51.9398 41.449 53.2963 42.2796 54.6159C42.9863 55.7401 44.1596 54.1016 43.4596 52.9866C42.6276 51.667 41.8023 50.3106 40.8089 49.2158C39.9769 48.2999 38.7903 49.918 39.6303 50.845Z" fill="#324398"/>
<path d="M26.9036 79.0705C28.6702 80.9836 30.2929 83.1361 32.0595 85.0492C32.8955 85.9522 34.0836 84.3341 33.2396 83.4181C31.4703 81.507 29.8502 79.3543 28.0822 77.4395C27.2462 76.5364 26.0582 78.1546 26.9036 79.0705Z" fill="#324398"/>
<path d="M40.2597 68.4371C41.197 69.4076 42.2531 70.1258 43.1904 71.0981C44.0518 71.9875 44.881 69.9876 44.0317 69.1093C43.0944 68.1388 42.0384 67.4206 41.1011 66.4483C40.2411 65.5589 39.4104 67.5587 40.2597 68.4371Z" fill="#324398"/>
<path d="M53.7004 50.7491C54.6591 52.699 55.7016 54.5495 56.5443 56.6045C57.0749 57.8983 58.515 56.7372 57.9844 55.4434C57.1404 53.3865 56.0977 51.5361 55.1404 49.5862C54.5404 48.3642 53.0964 49.5161 53.7004 50.7491Z" fill="#324398"/>
<path d="M42.9526 82.591C44.154 83.8978 45.2047 85.4422 46.406 86.7508C47.2407 87.6576 48.4287 86.0394 47.5847 85.1197C46.3833 83.813 45.3326 82.2685 44.1313 80.9599C43.2966 80.0532 42.1086 81.6714 42.9526 82.591Z" fill="#324398"/>
<path d="M53.4894 68.0052C54.5067 69.6196 55.5373 71.2138 56.6147 72.7527C57.364 73.8198 58.5414 72.1887 57.7948 71.1216C56.7161 69.5846 55.6854 67.9904 54.6693 66.3741C53.9627 65.2518 52.7894 66.8883 53.4894 68.0052Z" fill="#324398"/>
<path d="M55.8461 89.3199C56.7461 90.7501 57.6461 92.182 58.5448 93.6122C59.2514 94.7364 60.4247 93.098 59.7247 91.983C58.8247 90.551 57.9247 89.1208 57.0247 87.6907C56.3181 86.5683 55.1434 88.2049 55.8461 89.3199Z" fill="#324398"/>
<path d="M48.2466 96.7048C49.4093 97.5434 50.2573 98.8832 51.1066 100.232C51.8133 101.355 52.9879 99.7181 52.2866 98.6031C51.3452 97.1084 50.3745 95.645 49.0879 94.7143C48.1359 94.0287 47.2946 96.0155 48.2466 96.7048Z" fill="#324398"/>
<path d="M61.76 74.4958C62.548 75.3613 63.0386 76.4037 63.476 77.6411C63.9493 78.9762 65.3866 77.8069 64.9159 76.481C64.4226 75.0888 63.824 73.8403 62.94 72.868C62.108 71.9546 60.92 73.5714 61.76 74.4958Z" fill="#324398"/>
<path d="M54.1722 33.959C55.1842 35.5901 56.0723 37.3557 57.2976 38.7066C58.1296 39.6226 59.3163 38.0044 58.4763 37.0774C57.2496 35.7264 56.3616 33.9608 55.3523 32.3298C54.651 31.1982 53.4776 32.8366 54.1722 33.959Z" fill="#324398"/>
<path d="M16.0078 74.3835C16.6664 75.7056 17.4518 76.9283 18.3611 77.93C19.1931 78.8434 20.3811 77.2266 19.5411 76.3004C18.7438 75.4239 18.0237 74.3817 17.4477 73.2216C16.8424 72.0081 15.3971 73.1571 16.0078 74.3835Z" fill="#324398"/>
<path d="M26.1849 27.9489C24.2303 25.3429 22.2502 22.7738 20.4582 19.9521C19.7462 18.8334 18.5729 20.47 19.2782 21.5813C21.0729 24.403 23.0515 26.9721 25.0049 29.5782C25.7782 30.6102 26.9583 28.9828 26.1849 27.9489Z" fill="#324398"/>
</svg>
