<svg width="178" height="314" viewBox="0 0 178 314" fill="none" xmlns="http://www.w3.org/2000/svg">
<path d="M166.821 -23.2733C166.681 11.4567 162.368 45.5851 147.946 74.9886C133.476 104.504 110.757 125.084 89.7714 145.276C78.2866 156.319 67.0048 167.681 56.7388 180.763C51.7698 187.096 46.9102 193.852 42.8007 201.223C41.5663 203.43 35.2066 216.445 41.7069 207.936C44.1445 204.754 45.8477 200.292 47.9571 196.677C55.3949 183.878 65.3485 173.799 75.052 164.351C83.4274 156.197 93.0997 146.911 103.6 144.987C104.256 144.866 104.772 145.322 104.834 146.259C106.178 168.833 104.069 191.627 104.569 214.248C104.647 218.42 104.803 222.683 105.616 226.731C106.788 232.659 108.225 221.801 108.272 220.771C108.96 202.645 107.475 184.269 107.538 166.118C107.553 159.21 106.241 148.766 109.257 142.87C112.147 137.195 116.022 132.375 119.71 127.688C129.398 115.414 140.07 104.934 148.742 91.2193C158.633 75.5795 165.446 56.215 169.353 36.4621C171.4 26.1278 172.353 15.4135 173.212 4.80905C173.618 -0.0679516 173.962 -4.95338 174.322 -9.8346C175.009 -18.7149 174.665 -23.3978 166.618 -20.5953C165.399 -20.1711 164.884 -22.714 166.103 -23.1382C169.696 -24.3939 172.962 -23.7777 176.509 -22.4355C176.9 -22.2899 177.275 -21.7391 177.228 -21.1629C174.947 4.49462 174.447 31.2517 166.79 55.3581C159.149 79.4372 148.024 98.3248 133.304 115.208C126.351 123.18 119.335 131.098 113.241 140.308C108.585 147.354 109.585 157.237 109.491 166.118C109.413 173.81 109.553 181.508 109.71 189.196C109.928 200.316 110.569 211.505 110.147 222.626C110.006 226.241 109.694 228.736 107.569 230.819C103.116 235.193 102.741 217.941 102.663 216.067C101.959 198.245 103.022 180.291 103.178 162.46C103.209 158.605 103.178 154.749 103.084 150.898C102.959 145.74 100.647 148.298 97.5998 149.714C89.1932 153.635 81.521 161.3 74.3644 168.259C66.5829 175.836 59.239 184.091 52.6137 193.48C47.8323 200.254 44.7696 210.861 37.9725 214.358C37.2068 214.748 36.6442 213.621 36.7692 212.735C37.9724 203.717 42.7695 196.561 47.2384 190.021C53.8012 180.379 61.0203 171.613 68.5518 163.376C83.4587 147.076 99.7249 133.209 114.788 117.191C130.492 100.505 144.664 80.887 153.571 56.4956C162.556 31.8932 164.759 3.79188 164.868 -23.2733C164.868 -24.9742 166.821 -24.9763 166.821 -23.2733Z" fill="#324398"/>
<path d="M104.115 163.005C93.0054 166.033 85.177 177.587 80.0986 190.676C73.989 206.381 74.239 223.025 82.3644 237.07C89.599 249.582 88.4116 260.332 88.1616 275.693C87.8178 296.883 100.662 314.165 116.444 309.178C130.335 304.788 132.82 286.772 132.07 270.379C131.507 258.171 131.335 249.43 137.132 239.389C145.258 225.309 148.211 212.87 144.023 195.122C141.617 184.874 136.492 175.886 129.929 169.908C124.022 164.52 116.006 165.347 109.319 163.005C108.1 162.579 108.615 160.033 109.85 160.462C117.022 162.979 124.225 162.84 130.913 167.629C136.226 171.436 140.132 178.826 143.054 185.67C149.101 199.803 150.289 218.197 143.648 232.178C140.367 239.1 135.991 244.456 134.054 252.505C131.835 261.754 134.523 273.152 134.038 282.799C133.241 298.592 125.944 308.883 114.772 312.417C103.334 316.028 93.3648 305.772 88.7396 292.418C86.1614 284.943 86.0989 276.833 86.3957 268.782C86.677 261.001 87.3021 253.45 84.6926 246.093C82.8019 240.746 79.2706 236.291 76.9111 231.243C65.0513 205.76 83.9426 165.816 103.6 160.462C104.818 160.126 105.35 162.669 104.115 163.005Z" fill="#324398"/>
<path d="M104.865 179.054C95.0678 186.248 89.9113 200.962 84.9111 213.752C84.3173 215.257 82.6298 213.923 83.2236 212.421C88.38 199.223 93.7553 184.201 103.881 176.775C104.99 175.962 105.974 178.242 104.865 179.054Z" fill="#324398"/>
<path d="M109.756 181.903C118.601 191.786 127.789 204.853 126.71 221.527C126.601 223.209 124.648 223.221 124.757 221.527C125.788 205.524 116.835 193.221 108.366 183.771C107.397 182.684 108.788 180.831 109.756 181.903Z" fill="#324398"/>
<path d="M107.444 229.265C106.819 250.941 112.616 271.994 109.491 293.629C109.241 295.298 107.366 294.589 107.6 292.928C110.678 271.591 104.866 250.662 105.491 229.265C105.537 227.569 107.491 227.562 107.444 229.265Z" fill="#324398"/>
<path d="M108.959 230.321C113.772 246.465 125.507 257.002 123.553 276.044C123.382 277.723 121.491 277.004 121.663 275.343C123.506 257.331 111.631 246.307 107.084 231.021C106.615 229.443 108.506 228.763 108.959 230.321Z" fill="#324398"/>
<path d="M105.397 231.811C96.9434 237.819 96.5214 251.614 96.5058 263.031C96.4902 264.732 94.537 264.732 94.5526 263.031C94.5682 250.641 95.3182 236.002 104.397 229.533C105.522 228.74 106.506 231.017 105.397 231.811Z" fill="#324398"/>
<path d="M89.4741 229.303C92.6149 222.432 97.162 217.445 101.6 212.153C102.537 211.032 103.928 212.889 102.99 214.018C98.6776 219.153 94.2243 223.964 91.1616 230.635C90.4897 232.076 88.8022 230.753 89.4741 229.303Z" fill="#324398"/>
<path d="M111.116 209.133C116.71 214.643 120.585 222.443 124.491 230.006C125.21 231.403 123.522 232.72 122.804 231.338C119.1 224.171 115.428 216.633 110.131 211.41C109.131 210.418 110.1 208.128 111.116 209.133Z" fill="#324398"/>
<path d="M110.131 183.106C117.022 178.864 127.991 178.486 133.71 186.126C134.616 187.322 133.225 189.186 132.335 187.991C127.319 181.291 117.194 181.648 111.115 185.385C109.975 186.084 108.99 183.811 110.131 183.106Z" fill="#324398"/>
<path d="M123.382 200.559C128.741 199.067 134.679 199.176 138.929 204.414C139.851 205.564 138.46 207.426 137.538 206.28C133.851 201.73 128.522 201.814 123.913 203.102C122.679 203.446 122.147 200.903 123.382 200.559Z" fill="#324398"/>
<path d="M77.8325 155.135C68.7384 147.219 55.7535 149.988 45.925 153.654C40.5341 155.661 35.3152 158.537 30.5963 162.591C22.6585 169.397 24.3773 178.474 25.6274 188.818C28.1744 209.985 6.14215 215.462 2.48576 233.543C-1.09251 251.291 8.90792 269.86 20.799 275.676C32.487 281.393 38.956 272.099 43.9562 259.614C46.3782 253.6 49.5814 246.897 54.7379 244.772C58.1443 243.367 61.4725 243.251 65.0195 243.723C71.7073 244.618 75.4418 245.308 77.395 234.541C77.6919 232.889 79.567 233.592 79.2701 235.242C76.7856 248.942 72.3324 247.338 63.3945 246.144C49.6753 244.316 47.347 260.119 40.7374 271.852C35.3309 281.429 26.0337 281.03 18.3615 277.278C8.17357 272.293 1.70457 258.352 0.23576 244.43C-1.07679 232.034 3.20457 222.181 10.2517 214.833C14.4863 210.42 19.1271 206.537 22.1272 200.404C26.0805 192.324 21.8147 182.836 22.174 174.126C22.7209 160.515 37.7528 154.224 45.4094 151.111C55.6285 146.943 69.3791 144.649 78.8326 152.856C79.8796 153.772 78.8951 156.058 77.8325 155.135Z" fill="#324398"/>
<path d="M20.7844 249.096C39.6758 243.468 54.3327 220.113 51.8326 193.39C51.6763 191.703 53.6295 191.725 53.7858 193.39C56.3953 221.21 40.9571 245.787 21.3 251.639C20.0656 252.007 19.55 249.464 20.7844 249.096Z" fill="#324398"/>
<path d="M17.425 234.457C24.8471 228.573 31.441 221.008 37.0194 212.153C37.8319 210.857 39.2071 212.731 38.3945 214.018C32.7225 223.036 25.9722 230.745 18.4094 236.734C17.3156 237.597 16.3312 235.316 17.425 234.457Z" fill="#324398"/>
<path d="M30.4406 189.437C35.8158 184.209 43.5973 182.802 49.9413 185.081C51.1601 185.518 50.6445 188.063 49.4257 187.626C43.5348 185.512 36.4095 186.881 31.425 191.714C30.4093 192.708 29.4249 190.418 30.4406 189.437Z" fill="#324398"/>
<path d="M34.8471 168.2C44.3318 163.604 56.426 160.215 65.8013 166.926C66.9107 167.723 65.9264 170.001 64.8169 169.205C55.926 162.84 44.3318 166.4 35.3627 170.743C34.1751 171.319 33.6595 168.77 34.8471 168.2Z" fill="#324398"/>
<path d="M63.9413 227.896C69.7384 213.666 70.5666 193.989 63.9413 179.984C63.2694 178.547 64.9569 177.226 65.6288 178.653C72.6292 193.455 71.7541 214.2 65.6288 229.227C65.0194 230.717 63.3319 229.386 63.9413 227.896Z" fill="#324398"/>
<path d="M59.6761 211.328C61.3324 205.731 64.3795 201.871 67.739 198.083C68.7078 197.002 70.0984 198.858 69.1296 199.949C66.067 203.388 63.0826 206.919 61.5669 212.028C61.0982 213.588 59.2074 212.908 59.6761 211.328Z" fill="#324398"/>
<path d="M32.2371 230.103C37.0029 228.624 41.6907 226.668 46.5659 225.836C47.8003 225.623 47.8003 228.263 46.5659 228.474C41.8626 229.276 37.3467 231.222 32.7527 232.646C31.5339 233.026 31.0027 230.483 32.2371 230.103Z" fill="#324398"/>
<path d="M18.44 218.097C23.2995 218.097 28.1591 218.097 33.0186 218.097C34.2843 218.097 34.2843 220.733 33.0186 220.733C28.1591 220.733 23.2995 220.733 18.44 220.733C17.1743 220.733 17.1743 218.097 18.44 218.097Z" fill="#324398"/>
</svg>
