<svg width="136" height="259" viewBox="0 0 136 259" fill="none" xmlns="http://www.w3.org/2000/svg">
<path d="M138.477 254.706C115.757 254.34 92.583 249.47 70.2342 243.561C60.845 241.077 15.9458 226.173 30.2888 203.158C34.5793 196.273 43.3891 191.039 43.3954 180.329C43.4038 168.637 30.0873 164.315 24.5457 161.815C18.0092 158.868 11.1494 156.123 5.91853 149.383C-5.13098 135.151 9.29597 119.749 17.8602 114.883C27.3144 109.512 38.5885 106.192 38.9811 88.6626C39.2015 78.7654 35.7443 68.3358 33.4752 59.2697C29.9026 45.0131 28.0806 32.1632 30.9395 17.1486C35.8136 -8.47232 51.8631 11.3602 58.4794 23.0795C65.0537 34.7244 70.2132 47.9326 76.4705 59.9205C77.0646 61.0585 78.1665 61.229 78.7375 59.9205C86.2941 42.5929 112.287 10.0419 113.708 51.2616C114.373 70.5913 107.291 92.0093 114.955 109.846C115.343 110.747 116.109 111.041 116.75 110.53C125.001 103.97 135.578 90.8906 145.505 92.9755C155.906 95.1604 149.76 125.337 148.133 133.229C146.668 140.323 141.745 152.116 142.451 159.568C142.719 162.411 143.059 168.258 145.54 169.251C149.203 170.722 157.257 172.507 156.011 181.658C152.6 206.668 144.149 230.944 138.611 255.092C138.076 257.436 140.61 258.433 141.143 256.107C145.857 235.547 151.216 215.352 156.135 194.9C157.577 188.903 161.439 177.471 156.714 172.452C154.692 170.303 151.764 165.91 149.241 165.501C142.239 164.354 147.201 149.12 148.513 143.518C151.556 130.511 156.888 111.327 152.417 97.6272C146.078 78.2149 128.263 96.377 120.161 103.319C113.408 109.105 114.054 96.1062 114.057 88.2377C114.059 79.9236 115.179 71.5333 115.845 63.2947C116.806 51.4107 117.033 37.3776 110.23 28.9479C99.8835 16.1338 83.5149 43.9195 78.3764 53.8347C76.3319 57.7808 72.8685 46.0435 71.1451 42.3447C68.2337 36.0999 65.3538 29.7885 62.1716 23.8244C57.5285 15.1129 49.7367 -0.283844 40.8891 0.117188C24.1385 0.871887 25.7128 36.7232 29.1217 52.6823C32.2724 67.4344 42.5747 91.9115 30.6583 103.157C23.3535 110.05 13.8216 110.729 6.85266 118.642C-6.3652 133.647 1.44965 153.029 14.1469 160.754C21.7099 165.354 37.0625 166.8 40.6121 179.344C42.7342 186.848 30.4232 197.262 27.5579 201.859C16.458 219.674 39.3316 234.385 47.793 239.023C60.6582 246.075 74.659 248.844 88.2169 251.43C104.936 254.618 121.582 258.252 138.477 258.527C140.171 258.555 140.169 254.734 138.477 254.706Z" fill="#324398"/>
<path d="M141.503 255.266C120.506 222.534 105.93 181.08 90.4056 142.726C74.121 102.49 59.5955 60.7367 40.2546 23.3474C39.2513 21.4036 36.9696 23.3046 37.9877 25.2758C58.0863 64.1287 73.1723 107.672 90.0929 149.48C105.122 186.613 119.316 226.273 139.648 257.97C140.804 259.774 142.656 257.066 141.503 255.266Z" fill="#324398"/>
<path d="M43.3577 74.8677C52.6189 81.6474 62.1676 88.7172 70.3792 98.0064C71.393 99.1527 72.8728 98.144 72.5726 96.1452C70.5911 82.9896 69.7997 69.521 67.6755 56.4085C67.2871 54.0121 64.7557 55.0269 65.1441 57.4233C67.2683 70.5358 68.0617 84.0032 70.0411 97.16C70.7716 96.5426 71.5042 95.9218 72.2347 95.301C63.83 85.7978 54.1637 78.5107 44.6801 71.5662C43.1751 70.4655 41.8443 73.7609 43.3577 74.8677Z" fill="#324398"/>
<path d="M34.224 121.998C53.9931 121.731 71.1866 132.314 88.8376 144.152C89.524 144.614 90.6239 144.336 90.7645 143.01C92.8909 122.92 95.5336 102.961 97.7607 82.8937C98.0273 80.4854 95.4979 79.4525 95.2293 81.8789C93.825 94.5485 92.257 107.176 90.7331 119.812C90.0677 125.348 89.44 130.889 88.8229 136.438C88.2267 141.811 78.2793 133.044 76.7029 132.048C63.0758 123.453 49.1274 117.978 34.224 118.177C32.5322 118.202 32.5301 122.023 34.224 121.998Z" fill="#324398"/>
<path d="M55.9137 173.961C73.7474 173.585 90.6827 181.798 107.343 190.194C108.176 190.617 108.976 189.526 109.003 188.352C109.455 168.355 114.125 149.245 114.6 129.257C114.658 126.794 112.032 126.803 111.976 129.257C111.705 140.708 110.072 151.764 108.531 162.954C107.398 171.188 109.006 186.963 101.466 183.223C86.7239 175.904 71.598 169.81 55.9137 170.14C54.2219 170.177 54.2198 173.998 55.9137 173.961Z" fill="#324398"/>
<path d="M74.4568 213.631C90.8527 219.591 107.61 222.844 124.136 227.893C124.801 228.095 125.595 227.624 125.75 226.557C128.411 208.196 135.597 192.182 137.643 173.577C137.908 171.167 135.378 170.134 135.112 172.562C134.484 178.283 125.618 224.448 121.096 223.067C105.809 218.398 90.3259 215.461 75.1538 209.947C73.5123 209.348 72.8153 213.031 74.4568 213.631Z" fill="#324398"/>
</svg>
