<svg width="68" height="67" viewBox="0 0 68 67" fill="none" xmlns="http://www.w3.org/2000/svg">
<path d="M39.9562 0.590385C23.8095 3.25843 5.8495 14.6693 0.0361729 36.8159C-0.110494 37.4002 0.209558 38.0538 0.622891 38.212C9.91621 41.7674 21.4762 37.2641 29.7028 31.3234C34.0895 28.1493 37.3295 23.7862 40.1562 18.2775C42.0895 14.5005 46.5695 6.1207 46.5695 1.42348C46.5695 0.795494 46.1828 0.301815 45.7295 0.289112C43.7828 0.232845 41.9028 0.445187 39.9562 0.590385C38.8895 0.670246 38.8762 2.93899 39.9562 2.85913C40.1295 2.84461 44.7428 1.89175 44.2228 3.32196C43.3828 5.63246 42.5428 7.93751 41.6761 10.228C39.6361 15.6258 37.1828 20.6044 33.9295 24.7881C26.8628 33.8851 15.2095 36.8591 5.82289 37.0357C1.44956 37.1187 2.06281 35.3732 3.60948 31.2746C4.62281 28.5833 6.07611 26.1621 7.51611 23.8819C10.1828 19.6259 13.6095 16.3155 17.0761 13.368C23.9161 7.54183 31.9829 4.17682 39.9562 2.85913C41.0095 2.68671 41.0229 0.416145 39.9562 0.590385Z" fill="#324398"/>
<path d="M43.5832 2.13355C37.1966 9.15392 30.3966 15.2087 23.2766 20.7591C16.3966 26.1311 9.35657 33.4563 1.51657 35.7237C0.463236 36.0265 0.90334 38.2135 1.95667 37.9108C9.45001 35.7471 15.5433 29.1166 22.1433 24.2183C30.1299 18.3033 37.7033 11.5044 44.7699 3.73984C45.5966 2.81964 44.4099 1.22425 43.5832 2.13355Z" fill="#324398"/>
<path d="M5.43675 32.4766C12.2634 24.0916 19.0768 15.6336 27.4901 10.2685C28.4634 9.64597 27.61 7.69123 26.65 8.30832C18.1033 13.7569 11.1967 22.3603 4.25003 30.87C3.45003 31.852 4.63675 33.4529 5.43675 32.4766Z" fill="#324398"/>
<path d="M20.1565 31.1404C24.9831 28.1924 29.103 23.9435 33.2097 19.47C34.0497 18.5555 32.8631 16.9617 32.0364 17.8634C28.0231 22.2271 24.023 26.3123 19.3163 29.1801C18.3297 29.777 19.1831 31.7316 20.1565 31.1404Z" fill="#324398"/>
<path d="M30.8234 11.479C32.8901 10.2529 35.05 9.30975 37.0367 7.85147C37.9833 7.15861 37.1434 5.20153 36.1967 5.89258C34.21 7.35086 32.05 8.29584 29.9833 9.52014C28.9967 10.1024 29.8501 12.0558 30.8234 11.479Z" fill="#324398"/>
<path d="M60.2093 8.48595C46.7693 20.7605 34.5427 41.8293 36.6227 65.0648C36.6894 65.829 37.0893 66.3111 37.676 66.1572C46.636 63.7665 55.116 53.4581 60.4493 43.8094C63.4093 38.4637 65.5426 32.4042 66.1426 25.7193C66.596 20.5571 68.1826 9.84358 66.4093 5.07742C66.196 4.49481 65.6626 4.41676 65.276 4.66905C63.516 5.8143 61.9026 7.16282 60.2093 8.48595C59.2893 9.21558 60.1293 11.1776 61.0493 10.4461C65.1959 7.1955 64.9826 7.75089 65.0093 14.1469C65.0226 21.6121 64.5159 28.9514 62.1826 35.8015C58.4493 46.7568 50.9294 54.7774 43.4894 60.7846C38.9027 64.4798 37.876 64.1168 38.0093 57.244C38.156 50.3031 40.236 43.4969 42.5294 37.4513C46.716 26.4848 53.5826 17.2652 61.0493 10.4461C61.9426 9.63666 61.116 7.6692 60.2093 8.48595Z" fill="#324398"/>
<path d="M64.0761 7.38044C60.3828 18.5136 55.8894 28.9441 50.8761 39.0719C46.7561 47.4046 43.4228 57.0999 37.5562 63.4452C36.7162 64.3562 37.9028 65.9501 38.7295 65.0517C44.1295 59.2112 47.2361 50.7133 50.9161 42.972C56.2627 31.7376 61.4628 20.7625 65.5295 8.52571C65.9561 7.2044 64.5294 6.05005 64.0761 7.38044Z" fill="#324398"/>
<path d="M40.0234 58.0495C43.3167 46.4685 46.5567 34.8142 52.2233 24.9296C52.8767 23.7904 51.7032 22.173 51.0499 23.3252C45.1966 33.5401 41.81 45.4773 38.41 57.447C38.0233 58.8138 39.6367 59.4003 40.0234 58.0495Z" fill="#324398"/>
<path d="M52.5968 48.0633C55.9301 42.4552 58.2235 36.1935 60.4235 29.6595C60.8635 28.338 59.4234 27.1861 58.9834 28.5139C56.8501 34.8578 54.6634 41.0104 51.4101 46.4574C50.7434 47.5825 51.9168 49.1977 52.5968 48.0633Z" fill="#324398"/>
<path d="M55.596 23.9645C57.0894 21.5192 58.7427 19.2888 60.076 16.6752C60.7027 15.4683 59.2494 14.3357 58.636 15.53C57.396 17.98 55.8094 20.0672 54.4227 22.3579C53.7427 23.4773 54.916 25.091 55.596 23.9645Z" fill="#324398"/>
</svg>
