<svg width="162" height="64" viewBox="0 0 162 64" fill="none" xmlns="http://www.w3.org/2000/svg">
<g clip-path="url(#clip0_588_2402)">
<path d="M159.141 0.859131H1.93286V52.188H159.141V0.859131Z" fill="#324398"/>
<path d="M154.655 5.0813H6.43225V47.9871H154.655V5.0813Z" stroke="#EFC53A" stroke-width="2" stroke-miterlimit="10"/>
<path d="M159.141 0.790283H1.93286V52.2781H159.141V0.790283Z" stroke="#EFC53A" stroke-width="2" stroke-miterlimit="10"/>
<path d="M31.4628 11.0645C36.2477 11.0645 40.2681 14.9195 40.2273 20.7589C40.2273 26.6371 36.2155 30.4513 31.4628 30.4513H22.4748V40.9619H17.2646V11.0645H31.4628ZM35.0236 20.7439C35.0429 17.2475 33.1616 15.4027 31.1256 15.4027H22.4748V26.1195H31.1256C33.1444 26.1195 35.0236 24.2918 35.0236 20.7504V20.7439Z" fill="#EFC53A"/>
<path d="M78.4348 19.0088C81.2611 19.0088 84.5663 19.7927 86.6281 21.8007L84.6179 24.9406C83.2627 23.5919 80.8724 22.8832 78.5915 22.881C76.3107 22.8789 74.7258 23.6692 74.6957 25.3594C74.6528 26.648 75.5655 27.1248 79.1499 28.0483C82.642 28.9438 87.3346 29.9811 87.3497 34.8134C87.3647 39.753 82.4101 41.5591 78.1148 41.5591C74.6785 41.5591 71.1564 40.393 69.376 38.1787L71.3819 35.0324C72.6919 36.7849 75.3873 37.7019 77.9473 37.7084C80.6039 37.7084 82.5583 36.6625 82.569 34.8885C82.5797 33.1146 80.6619 32.801 77.8227 32.0472C72.417 30.6319 69.943 29.3691 69.9494 25.6429C69.9494 20.7548 74.1781 19.0088 78.4219 19.0088H78.4348Z" fill="#EFC53A"/>
<path d="M111.779 27.0387V40.9619H106.975V27.3759C106.975 24.5324 105.233 23.2696 102.974 23.2781C101.06 23.2781 98.7729 24.1995 96.8615 25.8381V40.9619H92.0615V11.0645H96.8594V22.2151C99.0886 20.1125 101.893 19.0129 104.473 19.0129C108.399 19.0151 111.779 21.5514 111.779 27.0387Z" fill="#EFC53A"/>
<path d="M143.809 40.9619H139.185L123.46 19.9579V40.9619H118.336V11.0645H122.958L138.683 32.1436V11.0645H143.82L143.809 40.9619Z" fill="#EFC53A"/>
<path d="M61.4933 21.8163C62.0049 22.2541 62.479 22.734 62.9107 23.2509C63.3411 23.7725 63.7249 24.3309 64.0576 24.9196C64.3903 25.5106 64.6678 26.131 64.8865 26.773C65.009 27.0909 65.0841 27.4173 65.1786 27.7481C65.2731 28.0788 65.3333 28.4117 65.3741 28.7489C65.5848 30.1007 65.5433 31.4798 65.2516 32.8165C64.8326 34.8541 63.8647 36.7383 62.4524 38.2657C61.0402 39.793 59.2373 40.9053 57.2388 41.4823C54.5378 42.2819 51.6385 42.0759 49.0777 40.9024C46.4989 39.7159 44.4271 37.6495 43.2339 35.0737C42.6422 33.7825 42.2977 32.3919 42.2181 30.9738C42.1465 29.557 42.3321 28.1388 42.7658 26.7881C43.2017 25.4433 43.8793 24.1893 44.7652 23.0877C45.6565 22.0058 46.7381 21.0959 47.9566 20.4031C49.1593 19.7132 50.4795 19.2522 51.8503 19.0436C53.1994 18.8394 54.5748 18.8904 55.9051 19.194L55.8857 19.3207C54.5709 19.2042 53.2458 19.3058 51.9641 19.6214C50.7066 19.9317 49.5121 20.457 48.4334 21.1741C47.368 21.8826 46.4329 22.7697 45.6694 23.7964C44.9174 24.8168 44.3531 25.9629 44.0028 27.1811C43.6489 28.3906 43.5001 29.6508 43.5625 30.9094C43.5969 31.223 43.6076 31.5365 43.6484 31.8479L43.816 32.7779L44.0715 33.6863C44.1682 33.9848 44.297 34.2726 44.4087 34.569C45.4041 36.9311 47.2204 38.8534 49.5223 39.9811L49.9518 40.1787C50.0945 40.2495 50.2415 40.3112 50.3921 40.3634C50.6949 40.4622 50.9955 40.5781 51.3027 40.6662L52.2369 40.881C52.5526 40.9411 52.8812 40.9669 53.1883 41.0098C55.1258 41.1923 57.0765 40.8482 58.8347 40.014C60.5928 39.1797 62.0931 37.8862 63.177 36.27C63.9052 35.1869 64.4339 33.9825 64.7384 32.7134C65.0572 31.4391 65.1373 30.1168 64.9746 28.8133C64.6483 26.1594 63.3838 23.7097 61.4095 21.9065L61.4933 21.8163Z" fill="#EFC53A"/>
<path d="M57.1914 23.0489C59.1043 23.8978 60.632 25.4293 61.476 27.3442C61.8997 28.3094 62.1289 29.3486 62.1504 30.4025C62.1687 31.469 61.9715 32.5282 61.5705 33.5166C61.1601 34.5128 60.5574 35.4184 59.7968 36.1816C59.0362 36.9448 58.1326 37.5506 57.1378 37.9644C55.1039 38.8063 52.8189 38.8063 50.785 37.9644C48.7251 37.1131 47.0822 35.4864 46.2105 33.435C45.7779 32.4064 45.5615 31.2998 45.5748 30.184C45.5881 29.0682 45.8308 27.9671 46.2878 26.9491C46.7431 25.9389 47.4069 25.0364 48.2357 24.301C49.0525 23.5814 50.0077 23.0362 51.0427 22.6989C53.0655 22.0543 55.2549 22.1789 57.1914 23.0489ZM57.1399 23.1671C56.2006 22.78 55.1893 22.5984 54.174 22.6344C53.1761 22.6718 52.1968 22.9161 51.2983 23.3518C49.5557 24.2051 48.1897 25.672 47.4626 27.4709C46.7489 29.2316 46.7221 31.1959 47.3874 32.9754C47.7185 33.8648 48.2221 34.6801 48.8693 35.3743C49.5261 36.0762 50.3158 36.6405 51.1925 37.0346C52.0692 37.4288 53.0155 37.6448 53.9764 37.6701C55.4466 37.7079 56.8951 37.31 58.1397 36.5266C59.3843 35.7432 60.3695 34.6093 60.9713 33.2675C61.8027 31.4329 61.8904 29.3474 61.2161 27.4495C60.8714 26.4902 60.3318 25.6127 59.6312 24.8723C59.4465 24.6983 59.2682 24.5179 59.0771 24.3504C58.8859 24.1829 58.6798 24.0304 58.4714 23.8844C58.2631 23.7383 58.0419 23.6159 57.8272 23.4892L57.1399 23.1671Z" fill="#EFC53A"/>
<path d="M68.6029 17.9949C67.9329 19.1611 67.0137 20.033 65.7229 20.4712C64.7649 20.7804 63.7417 20.8278 62.7592 20.6086C61.8832 20.4181 61.0366 20.1111 60.2421 19.6959L60.2121 19.6658C60.202 19.5094 60.2284 19.3528 60.2894 19.2083C60.6094 17.8188 61.1484 16.5302 62.1793 15.5015C62.6717 15.0074 63.2636 14.6235 63.9156 14.3754C64.5676 14.1274 65.265 14.0207 65.9613 14.0626C66.9533 14.1098 67.9269 14.3483 68.8284 14.7649L69.5135 15.0741C69.5565 15.0977 69.6145 15.1063 69.6016 15.1751C69.429 16.1643 69.0914 17.1176 68.6029 17.9949Z" fill="#EFC53A"/>
<path d="M58.9698 16.567C58.537 17.1642 58.0247 17.6997 57.4471 18.1584L57.4149 18.1734C57.2796 18.1498 57.2002 18.0403 57.0992 17.9587C56.1564 17.2564 55.3661 16.4252 54.9366 15.3085C54.7287 14.7739 54.6367 14.2013 54.6667 13.6286C54.6967 13.0558 54.8479 12.4959 55.1105 11.986C55.4737 11.2556 55.9756 10.6027 56.5881 10.0639C56.7427 9.92644 56.8974 9.79114 57.052 9.65154C57.0799 9.62792 57.1057 9.58711 57.1572 9.61933C57.8425 10.0771 58.4464 10.6462 58.9441 11.3031C59.6121 12.1491 59.9365 13.2158 59.8525 14.2905C59.7646 15.114 59.46 15.8995 58.9698 16.567Z" fill="#EFC53A"/>
<path d="M5.05308 63.0703L4.98651 63.8198C4.55239 63.9447 4.10236 64.0055 3.65067 64.0002C2.49666 64.0002 1.62973 63.6838 1.04986 63.051C0.474371 62.4197 0.166387 61.5897 0.190801 60.7358C0.177139 59.8163 0.52584 58.9284 1.16154 58.2639C1.81013 57.5723 2.67993 57.2266 3.77094 57.2266C4.09407 57.2294 4.41541 57.2749 4.72664 57.3619L4.58704 58.1608C4.25432 58.0497 3.90686 57.9889 3.55617 57.9804C2.74436 57.9804 2.1287 58.2317 1.70919 58.7342C1.2849 59.2545 1.06226 59.9102 1.08208 60.5812C1.06815 61.2858 1.32752 61.9685 1.80584 62.4862C2.28977 63.0159 2.95698 63.2808 3.80745 63.2808C4.22989 63.2636 4.64844 63.1929 5.05308 63.0703Z" fill="#EFC53A"/>
<path d="M12.2971 57.3232C12.2842 57.9575 12.2742 58.5495 12.267 59.0993C12.267 59.6491 12.2563 60.1603 12.2563 60.6371C12.2563 62.8835 11.37 64.0067 9.59746 64.0067C9.19175 64.0167 8.78787 63.9489 8.40766 63.807C8.08622 63.682 7.80486 63.4719 7.5937 63.1992C7.36451 62.8929 7.20475 62.5404 7.12551 62.1662C7.01966 61.6824 6.96994 61.1881 6.97733 60.6929C6.97733 60.1961 6.97375 59.6685 6.96659 59.1101C6.95943 58.5517 6.94941 57.9561 6.93652 57.3232H7.89223C7.85214 58.6018 7.83209 59.604 7.83209 60.33C7.82492 60.8068 7.85363 61.2835 7.918 61.756C7.95885 62.0783 8.06168 62.3897 8.22082 62.673C8.34667 62.8992 8.53949 63.0807 8.77277 63.1928C9.03962 63.3047 9.32758 63.3575 9.61679 63.3474C9.91584 63.3586 10.2138 63.3059 10.4909 63.1928C10.7226 63.0854 10.9149 62.9082 11.0407 62.6859C11.1961 62.4035 11.298 62.0948 11.3414 61.7753C11.409 61.293 11.4392 60.8062 11.4316 60.3192C11.4316 59.9648 11.4316 59.5396 11.4144 59.0457C11.3972 58.5517 11.3843 57.9718 11.3607 57.3275L12.2971 57.3232Z" fill="#EFC53A"/>
<path d="M19.8081 63.8712H18.8374C18.5153 62.9091 18.2804 62.2719 18.133 61.9598C18.0109 61.6405 17.7836 61.3723 17.4887 61.1995C17.1638 61.0879 16.8199 61.0419 16.4771 61.0642C16.1936 61.0642 15.9402 61.0642 15.719 61.075C15.719 62.1574 15.7391 63.088 15.7791 63.8669H14.8428C14.8943 62.8275 14.9201 61.6821 14.9201 60.4307C14.9201 59.2509 14.8943 58.215 14.8428 57.323H15.5536C15.704 57.323 15.8951 57.323 16.1249 57.308C16.3547 57.293 16.621 57.293 16.9196 57.293C18.3885 57.293 19.123 57.7991 19.123 58.8114C19.123 59.6532 18.7107 60.2453 17.886 60.5875V60.6369C18.0784 60.6999 18.2566 60.8003 18.4103 60.9322C18.5639 61.0641 18.6901 61.225 18.7816 61.4057C19.1718 62.2067 19.5146 63.03 19.8081 63.8712ZM18.2704 59.1464C18.2704 58.3503 17.7306 57.9516 16.6511 57.9501C16.3262 57.9453 16.0015 57.9676 15.6804 58.0167C15.7047 58.598 15.7162 59.3905 15.7147 60.3942C15.9166 60.3942 16.1077 60.4049 16.2924 60.4049C17.6111 60.4092 18.2704 59.9919 18.2704 59.1528V59.1464Z" fill="#EFC53A"/>
<path d="M27.2024 63.8708H26.1415C26.1415 63.646 25.9303 62.9402 25.5079 61.7533H22.6064C22.1926 62.9244 21.985 63.6303 21.9836 63.8708H20.9678C20.9678 63.7463 21.3973 62.6724 22.2564 60.6494C23.1154 58.6263 23.545 57.5159 23.545 57.3184H24.7111C24.7111 57.5159 25.1235 58.6105 25.9482 60.6021C26.7729 62.5937 27.191 63.6833 27.2024 63.8708ZM25.2695 61.0939C24.482 59.1267 24.0876 58.0808 24.0862 57.9562H24.0325C24.0325 58.0593 23.6251 59.1052 22.8105 61.0939H25.2695Z" fill="#EFC53A"/>
<path d="M32.9193 57.3232L32.8935 58.032C32.2291 58.0005 31.5433 57.984 30.836 57.9826C30.836 58.6269 30.836 59.443 30.836 60.4309C30.836 61.5248 30.8525 62.6702 30.8854 63.8671H29.9662C30.0049 62.7217 30.0249 61.5763 30.0264 60.4309C30.0264 59.4559 30.0163 58.6398 29.9963 57.9826C29.4995 57.9826 28.8015 58.0026 27.9023 58.0427L27.9281 57.3232H32.9193Z" fill="#EFC53A"/>
<path d="M38.8297 63.1108L38.7997 63.871H34.7471C34.7943 62.8316 34.8179 61.6862 34.8179 60.4348C34.8179 59.255 34.7943 58.2191 34.7471 57.3271H38.5484L38.5076 58.0767C37.5855 58.0366 36.6084 58.0165 35.5761 58.0165C35.5975 58.5363 35.6061 59.2386 35.6061 60.1234C36.4996 60.1234 37.292 60.1019 37.99 60.0633V60.8128C37.2469 60.7827 36.4523 60.7677 35.6061 60.7677C35.6061 61.6267 35.6212 62.4343 35.6512 63.1902C36.7651 63.1874 37.8246 63.1609 38.8297 63.1108Z" fill="#EFC53A"/>
<path d="M46.0545 60.3596C46.0668 61.2779 45.7421 62.1688 45.1418 62.8638C44.5347 63.5797 43.6957 63.9376 42.6248 63.9376C42.2768 63.9376 41.6955 63.9147 40.8809 63.8689C40.9295 62.8294 40.9546 61.684 40.956 60.4326C40.956 59.2529 40.931 58.217 40.8809 57.325H41.4328C41.5681 57.325 41.7721 57.325 42.047 57.31C42.3219 57.2949 42.5023 57.2949 42.5904 57.2949C43.773 57.2949 44.6464 57.5856 45.2105 58.1669C45.49 58.4578 45.7086 58.8017 45.8535 59.1782C45.9985 59.5547 46.0668 59.9564 46.0545 60.3596ZM45.1805 60.5873C45.1903 60.2446 45.1323 59.9033 45.01 59.583C44.8876 59.2628 44.7032 58.9698 44.4674 58.721C43.9921 58.2198 43.259 57.97 42.2682 57.9714C42.0747 57.9758 41.8817 57.993 41.6905 58.023C41.7163 58.8019 41.7292 59.6044 41.7292 60.4305C41.7292 61.3339 41.7478 62.2524 41.785 63.1859C42.0401 63.2386 42.2998 63.266 42.5603 63.2675C43.4452 63.2675 44.103 63.0048 44.534 62.4794C44.9675 61.9455 45.1967 61.2747 45.1805 60.5873Z" fill="#EFC53A"/>
<path d="M56.3241 63.871H55.624C55.624 63.8138 55.0742 63.0105 53.9746 61.4614C52.8292 59.8363 52.1734 58.8105 52.0074 58.3838H51.958C52.0181 59.1913 52.0482 59.8871 52.0482 60.4606C52.0482 61.5888 52.0732 62.7256 52.1233 63.871H51.2793C51.3351 62.78 51.3638 61.6346 51.3652 60.4348C51.3666 59.235 51.338 58.1991 51.2793 57.3271H52.2436C52.2436 57.4216 52.7497 58.1862 53.762 59.6208C54.8229 61.1285 55.4264 62.1107 55.5725 62.5674H55.624C55.5653 61.7499 55.5367 61.0555 55.5381 60.4842C55.5381 59.2443 55.5145 58.1919 55.4672 57.3271H56.3263C56.269 58.2163 56.2404 59.2522 56.2404 60.4348C56.2404 61.6174 56.2683 62.7629 56.3241 63.871Z" fill="#EFC53A"/>
<path d="M64.2365 57.3232C64.2236 57.9575 64.2136 58.5495 64.2064 59.0993C64.2064 59.6491 64.2064 60.1603 64.2064 60.6371C64.2064 62.8835 63.3202 64.0067 61.5477 64.0067C61.1419 64.0167 60.7381 63.9489 60.3579 63.807C60.0364 63.682 59.7551 63.4719 59.5439 63.1992C59.3156 62.8924 59.1559 62.5401 59.0757 62.1662C58.9699 61.6824 58.9201 61.1881 58.9275 60.6929C58.9275 60.1961 58.9239 59.6685 58.9168 59.1101C58.9096 58.5517 58.8996 57.9561 58.8867 57.3232H59.8424C59.8009 58.6018 59.7809 59.604 59.7823 60.33C59.7751 60.8068 59.8038 61.2835 59.8682 61.756C59.9091 62.0783 60.0119 62.3897 60.171 62.673C60.2969 62.8992 60.4897 63.0807 60.723 63.1928C60.9898 63.3047 61.2778 63.3575 61.567 63.3474C61.866 63.3586 62.164 63.3059 62.4411 63.1928C62.6728 63.0854 62.8651 62.9082 62.9909 62.6859C63.1463 62.4035 63.2482 62.0948 63.2916 61.7753C63.3592 61.293 63.3894 60.8062 63.3818 60.3192C63.3818 59.9648 63.3818 59.5396 63.3646 59.0457C63.3474 58.5517 63.3345 57.9718 63.313 57.3275L64.2365 57.3232Z" fill="#EFC53A"/>
<path d="M70.9774 57.3232L70.9517 58.032C70.2873 58.0005 69.6022 57.984 68.8964 57.9826C68.8964 58.6269 68.8856 59.443 68.8856 60.4309C68.8856 61.5248 68.9021 62.6702 68.935 63.8671H68.0158C68.0574 62.7217 68.0774 61.5763 68.076 60.4309C68.076 59.4559 68.066 58.6398 68.0459 57.9826C67.5505 57.9826 66.8533 58.0026 65.9541 58.0427L65.9799 57.3232H70.9774Z" fill="#EFC53A"/>
<path d="M77.7646 63.8712H76.7939C76.4717 62.9091 76.2369 62.2719 76.0894 61.9598C75.9673 61.6405 75.7401 61.3723 75.4451 61.1995C75.1202 61.0881 74.7764 61.0421 74.4336 61.0642C74.1501 61.0642 73.8967 61.0642 73.6755 61.075C73.6755 62.1574 73.6955 63.088 73.7356 63.8669H72.8057C72.8572 62.8275 72.8823 61.6821 72.8808 60.4307C72.8808 59.2509 72.8558 58.215 72.8057 57.323H73.5144C73.6669 57.323 73.858 57.323 74.0878 57.308C74.3176 57.293 74.5839 57.293 74.8824 57.293C76.3514 57.293 77.0859 57.7991 77.0859 58.8114C77.0859 59.6532 76.6736 60.2453 75.8489 60.5875V60.6369C76.2369 60.7655 76.5586 61.0417 76.7445 61.4057C77.1325 62.2069 77.4732 63.0301 77.7646 63.8712ZM76.2247 59.1464C76.2247 58.3503 75.6849 57.9516 74.6054 57.9501C74.2812 57.9454 73.9573 57.9676 73.6368 58.0167C73.6583 58.5987 73.6712 59.3912 73.6712 60.3942C73.873 60.3942 74.0642 60.4049 74.2489 60.4049C75.5675 60.4092 76.2262 59.9919 76.2247 59.1528V59.1464Z" fill="#EFC53A"/>
<path d="M80.7692 63.871H79.8135C79.865 62.7843 79.8901 61.6389 79.8886 60.4348C79.8872 59.2307 79.8622 58.1948 79.8135 57.3271H80.7692C80.7219 58.242 80.6983 59.2779 80.6983 60.4348C80.6983 61.6446 80.7219 62.7901 80.7692 63.871Z" fill="#EFC53A"/>
<path d="M87.6244 57.3232L87.5986 58.032C86.9342 58.0005 86.2484 57.984 85.5411 57.9826C85.5411 58.6269 85.5411 59.443 85.5411 60.4309C85.5411 61.5248 85.5576 62.6702 85.5905 63.8671H84.6606C84.6992 62.7217 84.7193 61.5763 84.7207 60.4309C84.7207 59.4559 84.7107 58.6398 84.6907 57.9826C84.1953 57.9826 83.4973 58.0026 82.5967 58.0427L82.6225 57.3232H87.6244Z" fill="#EFC53A"/>
<path d="M90.4157 63.871H89.4492C89.4993 62.7843 89.5244 61.6389 89.5244 60.4348C89.5244 59.2307 89.4993 58.1948 89.4492 57.3271H90.4157C90.3684 58.242 90.3448 59.2779 90.3448 60.4348C90.3377 61.6446 90.3613 62.7901 90.4157 63.871Z" fill="#EFC53A"/>
<path d="M98.77 60.4955C98.77 61.5793 98.4529 62.4455 97.8186 63.0941C97.5399 63.3998 97.2006 63.6441 96.8224 63.8116C96.4441 63.9791 96.0352 64.066 95.6216 64.067C95.2295 64.0679 94.8414 63.9892 94.4807 63.8356C94.1201 63.682 93.7943 63.4568 93.5233 63.1736C92.922 62.5794 92.6206 61.7762 92.6191 60.7639C92.6191 59.6658 92.9363 58.7967 93.5705 58.1567C93.851 57.8538 94.1907 57.6118 94.5687 57.4459C94.9467 57.28 95.3548 57.1937 95.7676 57.1924C96.16 57.1912 96.5485 57.2698 96.9096 57.4234C97.2706 57.577 97.5967 57.8023 97.868 58.0858C98.4693 58.6814 98.77 59.4847 98.77 60.4955ZM97.8744 60.6115C97.8744 59.7524 97.6475 59.083 97.1936 58.6034C96.9963 58.3811 96.7542 58.2029 96.4834 58.0804C96.2125 57.9579 95.9188 57.8939 95.6216 57.8925C95.3366 57.899 95.0568 57.9696 94.8029 58.099C94.549 58.2283 94.3274 58.4132 94.1547 58.6399C93.7252 59.1396 93.5104 59.8068 93.5104 60.6415C93.5104 61.512 93.7388 62.1835 94.1955 62.656C94.3934 62.8777 94.6355 63.0555 94.9063 63.1779C95.1771 63.3003 95.4704 63.3647 95.7676 63.3669C96.0536 63.3602 96.3344 63.2885 96.5885 63.1571C96.8427 63.0258 97.0636 62.8382 97.2344 62.6088C97.6816 62.0419 97.9089 61.3326 97.8744 60.6115Z" fill="#EFC53A"/>
<path d="M106.033 63.871H105.331C105.331 63.8138 104.781 63.0105 103.682 61.4614C102.536 59.8363 101.88 58.8105 101.714 58.3838H101.665C101.725 59.1913 101.755 59.8871 101.755 60.4606C101.755 61.5888 101.78 62.7256 101.83 63.871H100.986C101.042 62.78 101.07 61.6346 101.07 60.4348C101.07 59.235 101.042 58.1991 100.986 57.3271H101.951C101.951 57.4216 102.457 58.1862 103.469 59.6208C104.529 61.1285 105.132 62.1107 105.28 62.5674H105.331C105.272 61.7499 105.244 61.0555 105.245 60.4842C105.245 59.2443 105.222 58.1919 105.174 57.3271H106.033C105.977 58.2163 105.95 59.2522 105.95 60.4348C105.95 61.6174 105.977 62.7629 106.033 63.871Z" fill="#EFC53A"/>
<path d="M116.138 63.0697L116.072 63.8193C115.634 63.9473 115.181 64.0103 114.725 64.0061C113.571 64.0061 112.704 63.6897 112.124 63.0568C111.542 62.4282 111.228 61.5979 111.248 60.7417C111.234 59.8222 111.583 58.9342 112.219 58.2697C112.863 57.5782 113.737 57.2324 114.828 57.2324C115.151 57.2353 115.473 57.2808 115.784 57.3677L115.644 58.1667C115.311 58.0555 114.964 57.9947 114.613 57.9862C113.802 57.9862 113.186 58.2375 112.766 58.7401C112.342 59.2603 112.119 59.916 112.139 60.587C112.125 61.2917 112.385 61.9744 112.863 62.492C113.347 63.0218 114.014 63.2866 114.865 63.2866C115.297 63.2697 115.725 63.1968 116.138 63.0697Z" fill="#EFC53A"/>
<path d="M123.836 60.4955C123.836 61.5793 123.519 62.4455 122.884 63.0941C122.607 63.3984 122.269 63.642 121.893 63.8094C121.517 63.9768 121.11 64.0646 120.698 64.067C120.306 64.0682 119.917 63.9896 119.556 63.836C119.195 63.6825 118.869 63.4571 118.598 63.1736C117.994 62.5794 117.691 61.7762 117.691 60.7639C117.691 59.6658 118.009 58.7967 118.643 58.1567C118.923 57.8537 119.263 57.6118 119.641 57.4459C120.019 57.28 120.427 57.1937 120.84 57.1924C121.232 57.1915 121.62 57.2702 121.981 57.4238C122.341 57.5774 122.667 57.8026 122.938 58.0858C123.538 58.6814 123.837 59.4846 123.836 60.4955ZM122.94 60.6115C122.94 59.7524 122.713 59.083 122.259 58.6034C122.062 58.3813 121.82 58.2032 121.549 58.0808C121.278 57.9583 120.985 57.8942 120.687 57.8925C120.402 57.8992 120.122 57.9698 119.868 58.0991C119.614 58.2285 119.392 58.4133 119.218 58.6399C118.789 59.1396 118.574 59.8068 118.574 60.6415C118.574 61.512 118.803 62.1835 119.261 62.656C119.459 62.8778 119.701 63.0556 119.972 63.1781C120.243 63.3005 120.536 63.3648 120.833 63.3669C121.119 63.3601 121.399 63.2882 121.653 63.1569C121.907 63.0255 122.128 62.8381 122.298 62.6088C122.746 62.0422 122.974 61.3329 122.94 60.6115Z" fill="#EFC53A"/>
<path d="M133.06 63.871H132.115C132.115 63.1237 132.062 62.042 131.958 60.6259C131.853 59.2099 131.798 58.3623 131.793 58.0831H131.743C131.408 59.1713 130.983 60.3532 130.467 61.6289C129.952 62.9046 129.695 63.652 129.696 63.871H129.018C129.018 63.6348 128.778 62.8745 128.298 61.5902C127.819 60.3059 127.515 59.4469 127.388 59.0131C127.261 58.5835 127.173 58.27 127.126 58.0896H127.076C127.065 58.5463 126.998 59.4727 126.877 60.8686C126.754 62.2646 126.694 63.2654 126.694 63.8753H125.835C125.835 63.841 125.949 62.9182 126.176 61.107C126.358 59.8541 126.473 58.5923 126.52 57.3271H127.841C127.841 57.6965 128.109 58.6186 128.646 60.0933C129.183 61.568 129.452 62.4615 129.452 62.7736H129.503C129.503 62.4629 129.805 61.5666 130.409 60.0847C131.014 58.6029 131.315 57.6837 131.314 57.3271H132.602C132.602 58.033 132.679 59.2865 132.832 61.0877C132.985 62.8888 133.061 63.8166 133.06 63.871Z" fill="#EFC53A"/>
<path d="M140.027 58.9469C140.048 59.2836 139.979 59.6198 139.828 59.9215C139.678 60.2233 139.45 60.4797 139.168 60.665C138.588 61.043 137.809 61.232 136.831 61.232C136.706 61.232 136.599 61.232 136.509 61.232C136.509 61.9622 136.535 62.8456 136.588 63.8822H135.624C135.673 62.9286 135.698 61.7832 135.699 60.4459C135.699 59.2919 135.674 58.256 135.624 57.3383H136.341C136.419 57.3383 136.64 57.3383 137.003 57.3232C137.366 57.3082 137.677 57.3082 137.931 57.3082C138.478 57.2788 139.019 57.4339 139.468 57.7485C139.65 57.8894 139.795 58.0717 139.893 58.2801C139.99 58.4885 140.036 58.7171 140.027 58.9469ZM139.187 59.2389C139.187 58.3799 138.599 57.9504 137.424 57.9504C137.099 57.9531 136.774 57.979 136.453 58.0277C136.477 58.5732 136.489 59.4244 136.487 60.5812C136.606 60.5812 136.749 60.592 136.917 60.592C138.43 60.5891 139.187 60.1381 139.187 59.2389Z" fill="#EFC53A"/>
<path d="M147.217 63.8708H146.156C146.156 63.646 145.945 62.9402 145.523 61.7533H142.621C142.205 62.9244 141.996 63.6303 141.996 63.8708H140.98C140.98 63.7463 141.41 62.6724 142.269 60.6494C143.128 58.6263 143.558 57.5159 143.558 57.3184H144.752C144.752 57.5159 145.164 58.6105 145.989 60.6021C146.814 62.5937 147.223 63.6833 147.217 63.8708ZM145.284 61.0939C144.497 59.1267 144.103 58.0808 144.103 57.9562H144.047C144.047 58.0593 143.64 59.1052 142.825 61.0939H145.284Z" fill="#EFC53A"/>
<path d="M154.038 63.871H153.342C153.342 63.8138 152.792 63.0105 151.692 61.4614C150.547 59.8363 149.892 58.8105 149.727 58.3838H149.676C149.736 59.1913 149.768 59.8871 149.768 60.4606C149.768 61.5888 149.793 62.7256 149.843 63.871H148.997C149.054 62.78 149.083 61.6346 149.083 60.4348C149.083 59.235 149.054 58.1991 148.997 57.3271H149.964C149.964 57.4216 150.47 58.1862 151.482 59.6208C152.541 61.1285 153.145 62.1107 153.292 62.5674H153.342C153.286 61.7492 153.256 61.0641 153.256 60.4842C153.256 59.2443 153.233 58.1919 153.187 57.3271H154.046C153.99 58.2163 153.962 59.2522 153.96 60.4348C153.959 61.6174 153.985 62.7629 154.038 63.871Z" fill="#EFC53A"/>
<path d="M161.312 57.3227C161.312 57.4472 161.097 57.808 160.694 58.4094C160.112 59.2577 159.729 59.8333 159.553 60.1275C159.141 60.8305 158.935 61.3638 158.935 61.7275C158.935 62.4162 158.958 63.127 159.005 63.8601H158.039C158.082 63.1643 158.103 62.4512 158.103 61.7125C158.103 61.3108 157.912 60.7525 157.526 60.0373C157.31 59.6393 156.952 59.063 156.452 58.3084C156.065 57.7243 155.872 57.3907 155.872 57.3076H156.903C156.903 57.3957 157.193 57.9283 157.762 58.9098C158.331 59.8912 158.621 60.5377 158.621 60.8534H158.673C158.673 60.5327 158.948 59.8955 159.499 58.942C160.051 57.9884 160.326 57.4436 160.326 57.3076L161.312 57.3227Z" fill="#EFC53A"/>
</g>
<defs>
<clipPath id="clip0_588_2402">
<rect width="161.289" height="64" fill="white"/>
</clipPath>
</defs>
</svg>
