<svg width="135" height="166" viewBox="0 0 135 166" fill="none" xmlns="http://www.w3.org/2000/svg">
<path d="M-2.54659 134.502C14.7165 126.224 32.959 116.767 43.5796 100.156C49.135 91.4728 51.5932 80.9389 55.8763 71.6417C60.1815 62.2781 73.065 51.5909 83.863 50.6879C85.1187 50.5858 85.1288 48.6235 83.8564 48.72C77.5844 49.2459 68.9373 54.3653 64.2161 58.2657C56.2335 64.8727 52.7458 73.3966 49.1727 82.8712C44.6256 94.9394 39.2654 104.581 29.4336 113.149C19.7882 121.53 7.92189 127.317 -3.52064 132.791C-4.66655 133.338 -3.68363 135.04 -2.54659 134.502Z" fill="#324398"/>
<path d="M31.3483 110.103C19.2402 110.474 3.40142 86.8436 12.4955 76.5071C14.2305 74.5503 20.7576 73.1703 21.0028 77.9392C21.1026 79.7474 20.4571 81.9017 20.1165 83.6843C19.7194 85.7898 19.6096 87.7855 20.0533 89.8932C21.0717 94.7541 26.6104 96.803 30.8945 96.2239C35.1465 95.6327 37.3363 90.5587 37.445 86.878C37.6103 80.9222 32.9346 74.6601 30.0781 69.8402C28.0958 66.4978 25.8871 63.049 25.5155 59.0943C25.0929 54.5694 33.548 43.7181 33.3783 51.2315C33.2485 57.0188 32.4942 61.8775 37.2242 65.9331C39.8034 68.1462 42.824 66.7673 44.8197 64.6607C49.1671 60.1137 47.4488 53.601 48.2009 48.0566C48.8532 43.2555 57.1807 40.2526 57.1985 45.6705C57.1985 46.558 57.0487 47.462 56.9678 48.3417C56.8968 49.2114 56.9012 50.4272 57.4969 51.1405C59.7898 53.8838 64.3158 50.7334 66.0996 48.9274C70.2118 44.8152 68.3881 34.614 69.2189 29.5012C70.3715 22.4471 76.2875 18.9717 82.8103 18.1952C85.1831 17.9079 87.5469 18.2062 89.8643 18.7287C100.991 21.2468 91.9398 27.9016 89.7545 29.5988C87.4704 31.3948 83.6999 34.8326 86.0938 38.1184C89.1222 42.2783 93.3808 41.1478 97.9389 40.1617C103.119 39.0635 106.64 39.0035 110.768 42.9072C117.349 49.1282 114.999 59.8197 105.299 60.6894C99.1503 61.2474 94.0797 58.1536 87.9541 60.441C82.4186 62.4932 79.9626 66.3469 84.1425 71.0859C86.8659 74.1753 90.6142 76.4394 93.7801 79.0418C97.1902 81.844 102.945 90.3546 94.2904 90.8449C89.9308 91.1 84.8513 86.107 81.6155 83.7076C78.0735 81.0819 74.4361 78.5737 70.1541 77.3535C62.1427 75.0705 54.6826 83.884 56.9744 91.6425C58.3167 96.1796 60.8913 99.0183 65.7246 99.5541C68.5667 99.8625 71.8192 98.518 74.6225 98.3328C83.0532 97.7781 84.5375 106.633 78.5849 110.389C71.9779 114.555 66.0408 111.219 60.4355 107.528C58.4421 106.216 54.4264 104.197 52.2798 106.476C49.9636 108.926 49.7728 111.512 51.2038 114.541C52.3897 117.038 55.7631 122.628 48.2064 123.151C45.6306 123.331 42.5179 121.008 40.6088 119.545C38.084 117.61 35.8354 115.067 34.0561 112.453C33.345 111.412 31.6423 112.382 32.3522 113.425C35.4272 117.938 48.5337 131.61 54.0215 122.373C54.7447 121.139 55.3127 119.861 54.9 118.388C54.3276 116.342 49.0429 106.674 55.9927 107.578C61.5537 108.296 64.9437 113.891 71.0549 114.28C77.9526 114.726 88.7506 108.166 83.1397 100.576C80.1612 96.5435 75.2625 96.0731 70.7343 96.8297C65.474 97.7193 59.8265 99.7727 58.6772 89.3629C58.2524 85.4837 60.6651 81.7397 63.8599 79.8095C67.4352 77.6541 71.8736 79.8051 75.0473 81.6011C81.1674 85.0655 89.3929 95.3875 97.2834 92.1117C105.691 88.6296 98.0521 80.028 94.2538 76.9042C90.8549 74.1132 86.5142 71.6871 84.1469 67.8644C81.4846 63.5603 91.038 61.4393 93.2111 61.2852C97.1802 60.9989 101.291 62.5454 105.306 62.6574C118.968 63.0168 118.176 47.2136 110.833 40.2693C106.921 36.5709 102.282 37.2608 97.4409 38.2637C95.3931 38.6918 93.4751 39.1011 91.3585 39.1988C80.9943 39.6902 90.3025 31.6688 91.1411 30.9854C92.8816 29.5777 95.5951 27.9738 96.305 25.6664C99.9979 13.809 79.5744 15.7292 73.948 18.9595C68.7165 21.9502 67.311 27.8595 66.7497 33.3905C66.1728 39.1145 68.1318 47.4055 60.7571 49.9879C58.016 50.9541 59.1931 45.1181 59.0422 43.96C58.6639 40.9216 55.6244 40.6998 53.1684 40.9593C47.7029 41.5439 46.1675 46.6068 45.97 51.2415C45.8048 55.3559 46.162 58.6372 44.041 62.4222C41.4996 66.9826 36.6297 64.0873 35.4816 60.1548C34.9646 58.3866 35.1676 56.1646 35.2164 54.3409C35.2741 51.7761 36.6286 46.1841 33.3406 45.0127C30.168 43.8812 25.4445 51.2448 24.668 53.4634C22.5237 59.579 24.4428 63.9386 27.4967 69.3155C31.2939 76.0124 40.448 87.1809 31.7599 93.7613C24.18 99.4998 21.4466 87.8564 22.0145 84.1824C22.2597 82.6504 22.5903 81.1219 22.8233 79.5799C23.1294 77.5876 23.0008 75.897 21.8826 74.2419C20.0921 71.5951 15.3765 72.7832 13.0048 73.7571C9.44942 75.227 8.48207 79.5666 8.31568 82.95C7.76102 94.6865 18.3183 112.461 31.3549 112.07C32.6162 112.029 32.6218 110.071 31.3483 110.103Z" fill="#324398"/>
</svg>
