<svg id="Layer_1" data-name="Layer 1" xmlns="http://www.w3.org/2000/svg" xmlns:xlink="http://www.w3.org/1999/xlink" viewBox="0 0 161.12 63.78"><defs><style>.cls-1{fill:#283371;}.cls-2,.cls-3{fill:none;stroke-miterlimit:10;}.cls-2{stroke:url(#linear-gradient);}.cls-3{stroke:url(#linear-gradient-2);}.cls-4{fill:url(#radial-gradient);}.cls-5{fill:url(#radial-gradient-2);}.cls-6{fill:url(#radial-gradient-3);}.cls-7{fill:url(#radial-gradient-4);}.cls-8{fill:url(#radial-gradient-5);}.cls-9{fill:url(#radial-gradient-6);}.cls-10{fill:url(#radial-gradient-7);}.cls-11{fill:url(#radial-gradient-8);}.cls-12{fill:#d6b918;}</style><linearGradient id="linear-gradient" x1="131.58" y1="112.25" x2="280.8" y2="112.25" gradientUnits="userSpaceOnUse"><stop offset="0" stop-color="#ffe164"/><stop offset="1" stop-color="#ac7f19"/></linearGradient><linearGradient id="linear-gradient-2" x1="127.08" y1="112.25" x2="285.29" y2="112.25" xlink:href="#linear-gradient"/><radialGradient id="radial-gradient" cx="154.39" cy="111.73" r="13.33" gradientTransform="translate(-40.83 302.92) rotate(-100) scale(1 2.02)" xlink:href="#linear-gradient"/><radialGradient id="radial-gradient-2" cx="204.01" cy="116" r="10.2" gradientTransform="translate(-108.95 170.88) rotate(-60) scale(1 2.1)" xlink:href="#linear-gradient"/><radialGradient id="radial-gradient-3" cx="227.57" cy="111.73" r="12.66" gradientTransform="matrix(0.77, -0.64, 2.12, 2.53, -183.75, -24.43)" xlink:href="#linear-gradient"/><radialGradient id="radial-gradient-4" cx="256.72" cy="111.73" r="13.89" gradientTransform="translate(15.23 414.99) rotate(-100) scale(1 2.6)" xlink:href="#linear-gradient"/><radialGradient id="radial-gradient-5" cx="179.5" cy="116.15" r="11.59" gradientTransform="translate(107.95 480.68) rotate(-140) scale(1 2.8)" xlink:href="#linear-gradient"/><radialGradient id="radial-gradient-6" cx="179.51" cy="116.16" r="8.22" gradientTransform="translate(107.96 480.69) rotate(-140) scale(1 2.8)" xlink:href="#linear-gradient"/><radialGradient id="radial-gradient-7" cx="190.55" cy="103.11" r="4.08" gradientTransform="translate(150.94 446.76) rotate(-140) scale(1 2.8)" xlink:href="#linear-gradient"/><radialGradient id="radial-gradient-8" cx="182.91" cy="99.6" r="3.54" gradientTransform="translate(143.76 430.81) rotate(-140) scale(1 2.8)" xlink:href="#linear-gradient"/></defs><path class="cls-1" d="M284.79,86.57H127.58V137.9H284.79Z" transform="translate(-125.83 -86)"/><path class="cls-2" d="M280.3,90.79H132.08V133.7H280.3Z" transform="translate(-125.83 -86)"/><path class="cls-3" d="M284.79,86.5H127.58V138H284.79Z" transform="translate(-125.83 -86)"/><path class="cls-4" d="M157.11,96.78c4.78,0,8.8,3.85,8.76,9.69s-4,9.69-8.76,9.69h-9v10.51h-5.21V96.78Zm3.56,9.68c0-3.5-1.86-5.34-3.9-5.34h-8.65v10.71h8.65c2,0,3.9-1.83,3.9-5.37Z" transform="translate(-125.83 -86)"/><path class="cls-5" d="M204.08,104.72c2.83,0,6.13.79,8.19,2.79l-2,3.14a8.87,8.87,0,0,0-6-2.06c-2.28,0-3.87.79-3.9,2.48,0,1.29.87,1.77,4.46,2.69s8.18,1.93,8.2,6.77-4.94,6.74-9.24,6.74c-3.44,0-7-1.16-8.74-3.38l2-3.15c1.31,1.76,4,2.67,6.56,2.68s4.61-1,4.62-2.82-1.9-2.09-4.74-2.84c-5.41-1.42-7.88-2.68-7.88-6.4,0-4.89,4.23-6.64,8.48-6.64Z" transform="translate(-125.83 -86)"/><path class="cls-6" d="M237.42,112.75v13.92h-4.8V113.09c0-2.85-1.74-4.11-4-4.1a9.91,9.91,0,0,0-6.11,2.56v15.12h-4.8V96.78h4.79v11.15a11.31,11.31,0,0,1,7.62-3.2C234,104.73,237.42,107.26,237.42,112.75Z" transform="translate(-125.83 -86)"/><path class="cls-7" d="M269.45,126.67h-4.62l-15.72-21v21H244V96.78h4.62l15.73,21.08V96.78h5.14Z" transform="translate(-125.83 -86)"/><path class="cls-8" d="M187.14,107.53a13.69,13.69,0,0,1,1.42,1.43,11.19,11.19,0,0,1,1.14,1.67,10.34,10.34,0,0,1,.83,1.86,9.92,9.92,0,0,1,.29,1,5.71,5.71,0,0,1,.2,1,11.14,11.14,0,0,1-.12,4.07,11.45,11.45,0,0,1-2.8,5.45,11.32,11.32,0,0,1-5.22,3.21,11.61,11.61,0,0,1-8.16-.58,11.9,11.9,0,0,1-5.84-5.82,11.51,11.51,0,0,1-1-4.1,11.89,11.89,0,0,1,.55-4.19,11.66,11.66,0,0,1,2-3.7,11.42,11.42,0,0,1,3.19-2.68,11.06,11.06,0,0,1,3.9-1.36,10.63,10.63,0,0,1,4.05.15l0,.12a12.31,12.31,0,0,0-3.92.3,11.29,11.29,0,0,0-6.3,4.18,10.76,10.76,0,0,0-1.66,3.38,11.2,11.2,0,0,0-.44,3.73c0,.32,0,.63.08.94l.17.93.26.91c.09.3.22.59.33.88a10.63,10.63,0,0,0,5.12,5.41l.43.2.44.19c.3.09.6.21.91.3l.93.21c.32.06.65.09,1,.13a10.86,10.86,0,0,0,11.55-8.29,10.69,10.69,0,0,0,.24-3.9,11.22,11.22,0,0,0-3.56-6.91Z" transform="translate(-125.83 -86)"/><path class="cls-9" d="M182.84,108.76a8.39,8.39,0,0,1,4.28,4.3,8,8,0,0,1,.68,3,8.15,8.15,0,0,1-5,7.57,8.32,8.32,0,0,1-6.35,0,8.48,8.48,0,0,1-4.57-4.53,8.09,8.09,0,0,1-.64-3.25,8.21,8.21,0,0,1,.71-3.24,7.85,7.85,0,0,1,4.76-4.25A8.65,8.65,0,0,1,182.84,108.76Zm-.05.12a7,7,0,0,0-3-.53,7.19,7.19,0,0,0-2.88.71,7.9,7.9,0,0,0-3.83,4.12,7.59,7.59,0,0,0-.08,5.51,7.16,7.16,0,0,0,3.81,4.06,7.18,7.18,0,0,0,2.78.63,7.44,7.44,0,0,0,7-4.4,7.77,7.77,0,0,0,.24-5.82,7.4,7.4,0,0,0-1.58-2.58l-.56-.52a6.8,6.8,0,0,0-.6-.46c-.21-.15-.43-.27-.65-.4Z" transform="translate(-125.83 -86)"/><path class="cls-10" d="M194.25,103.71a5.19,5.19,0,0,1-2.88,2.47,5.65,5.65,0,0,1-3,.14,10.19,10.19,0,0,1-2.51-.91l0,0a1,1,0,0,1,.07-.46,7.41,7.41,0,0,1,1.89-3.71,5.1,5.1,0,0,1,1.74-1.12,4.77,4.77,0,0,1,2.05-.31,7.47,7.47,0,0,1,2.86.7l.69.31s.1,0,.09.1A9.13,9.13,0,0,1,194.25,103.71Z" transform="translate(-125.83 -86)"/><path class="cls-11" d="M184.62,102.28a8.24,8.24,0,0,1-1.53,1.59l0,0c-.13,0-.21-.14-.32-.22a6,6,0,0,1-2.16-2.65,4,4,0,0,1-.27-1.68,3.94,3.94,0,0,1,.45-1.64,6.27,6.27,0,0,1,1.47-1.92l.47-.42s.05-.06.1,0A7.37,7.37,0,0,1,184.59,97a4.27,4.27,0,0,1,.91,3A4.7,4.7,0,0,1,184.62,102.28Z" transform="translate(-125.83 -86)"/><path class="cls-12" d="M130.7,148.78l-.07.75a4.27,4.27,0,0,1-1.33.18,3.32,3.32,0,0,1-2.6-1,3.24,3.24,0,0,1-.86-2.31,3.44,3.44,0,0,1,1-2.47,3.38,3.38,0,0,1,2.61-1,3.82,3.82,0,0,1,1,.13l-.14.8a3.59,3.59,0,0,0-1-.18,2.26,2.26,0,0,0-1.85.76,2.79,2.79,0,0,0-.62,1.84,2.7,2.7,0,0,0,.72,1.91,2.58,2.58,0,0,0,2,.79A4.42,4.42,0,0,0,130.7,148.78Z" transform="translate(-125.83 -86)"/><path class="cls-12" d="M137.94,143q0,.94,0,1.77c0,.55,0,1.06,0,1.54,0,2.25-.88,3.37-2.66,3.37a3.24,3.24,0,0,1-1.19-.2,2,2,0,0,1-.81-.61,2.61,2.61,0,0,1-.47-1,7.33,7.33,0,0,1-.15-1.47c0-.5,0-1,0-1.59s0-1.15,0-1.78h1c0,1.27-.06,2.28-.06,3a9.72,9.72,0,0,0,.08,1.43,2.57,2.57,0,0,0,.31.92,1.32,1.32,0,0,0,.55.52,2,2,0,0,0,.84.15,2.21,2.21,0,0,0,.88-.15,1.29,1.29,0,0,0,.55-.51,2.87,2.87,0,0,0,.3-.91,11.8,11.8,0,0,0,.09-1.46c0-.35,0-.78,0-1.27s0-1.08-.05-1.72Z" transform="translate(-125.83 -86)"/><path class="cls-12" d="M145.45,149.58h-1a20.24,20.24,0,0,0-.7-1.91,1.47,1.47,0,0,0-.65-.76,2.45,2.45,0,0,0-1-.13h-.76q0,1.62.06,2.79h-.93c0-1,.08-2.19.08-3.44s0-2.21-.08-3.1h.71c.15,0,.34,0,.57,0h.8c1.46,0,2.2.5,2.2,1.51a1.79,1.79,0,0,1-1.24,1.78v0a1.62,1.62,0,0,1,.53.29,1.72,1.72,0,0,1,.37.48A22,22,0,0,1,145.45,149.58Zm-1.53-4.72q0-1.2-1.62-1.2a6.24,6.24,0,0,0-1,.07c0,.58,0,1.37,0,2.38h.58c1.32,0,2-.42,2-1.25Z" transform="translate(-125.83 -86)"/><path class="cls-12" d="M152.85,149.58h-1.06a10.69,10.69,0,0,0-.64-2.11h-2.9a10.87,10.87,0,0,0-.62,2.11h-1c0-.12.43-1.2,1.29-3.22a24.23,24.23,0,0,0,1.29-3.33h1.17a24.21,24.21,0,0,0,1.23,3.28A30.26,30.26,0,0,1,152.85,149.58Zm-1.93-2.77c-.79-2-1.19-3-1.19-3.14h0c0,.1-.41,1.15-1.22,3.14Z" transform="translate(-125.83 -86)"/><path class="cls-12" d="M158.56,143l0,.7c-.67,0-1.35,0-2.06,0v2.44c0,1.1,0,2.24.05,3.44h-.92c0-1.15.06-2.29.06-3.44,0-1,0-1.79,0-2.44-.49,0-1.19,0-2.09.06l0-.72Z" transform="translate(-125.83 -86)"/><path class="cls-12" d="M164.48,148.82l0,.76h-4.06c.05-1,.07-2.18.07-3.43s0-2.22-.07-3.11h3.8l0,.75c-.92,0-1.9-.06-2.93-.06,0,.52,0,1.22,0,2.11.9,0,1.69,0,2.39-.06v.75c-.75,0-1.54-.05-2.39-.05,0,.86,0,1.67.05,2.42C162.41,148.9,163.47,148.87,164.48,148.82Z" transform="translate(-125.83 -86)"/><path class="cls-12" d="M171.7,146.07a3.79,3.79,0,0,1-.91,2.51,3.15,3.15,0,0,1-2.52,1.07c-.35,0-.93,0-1.74-.07.05-1,.07-2.18.07-3.43s0-2.22-.07-3.11h.55c.13,0,.34,0,.61,0h.55a3.52,3.52,0,0,1,2.62.87,3,3,0,0,1,.64,1A3.19,3.19,0,0,1,171.7,146.07Zm-.87.23a2.63,2.63,0,0,0-.17-1,2.73,2.73,0,0,0-.55-.87,2.9,2.9,0,0,0-2.2-.75,5.51,5.51,0,0,0-.57.06c0,.77,0,1.58,0,2.4s0,1.82.06,2.76a4.13,4.13,0,0,0,.78.08,2.39,2.39,0,0,0,2-.79A2.93,2.93,0,0,0,170.83,146.3Z" transform="translate(-125.83 -86)"/><path class="cls-12" d="M182,149.58h-.7c0-.05-.55-.86-1.65-2.41a22.63,22.63,0,0,1-2-3.07h-.05c.06.8.09,1.5.09,2.07,0,1.13,0,2.27.08,3.41h-.85c.06-1.09.09-2.23.09-3.43s0-2.24-.09-3.11h1a19.86,19.86,0,0,0,1.52,2.29,16.12,16.12,0,0,1,1.81,2.95h.05c-.06-.82-.09-1.51-.09-2.08,0-1.24,0-2.3-.07-3.16H182c-.06.89-.08,1.92-.08,3.11S181.91,148.48,182,149.58Z" transform="translate(-125.83 -86)"/><path class="cls-12" d="M189.88,143q0,.94,0,1.77v1.54c0,2.25-.88,3.37-2.66,3.37a3.24,3.24,0,0,1-1.19-.2,2,2,0,0,1-.81-.61,2.68,2.68,0,0,1-.47-1,7.33,7.33,0,0,1-.15-1.47c0-.5,0-1,0-1.59s0-1.15,0-1.78h1c0,1.27-.06,2.28-.06,3a9.72,9.72,0,0,0,.08,1.43,2.57,2.57,0,0,0,.31.92,1.32,1.32,0,0,0,.55.52,2,2,0,0,0,.84.15,2.21,2.21,0,0,0,.88-.15,1.29,1.29,0,0,0,.55-.51,2.87,2.87,0,0,0,.3-.91A11.8,11.8,0,0,0,189,146c0-.35,0-.78,0-1.27s0-1.08,0-1.72Z" transform="translate(-125.83 -86)"/><path class="cls-12" d="M196.62,143l0,.7c-.67,0-1.35,0-2.06,0,0,.64,0,1.46,0,2.44s0,2.24.05,3.44h-.92c0-1.15.06-2.29.06-3.44,0-1,0-1.79,0-2.44-.49,0-1.19,0-2.09.06l0-.72Z" transform="translate(-125.83 -86)"/><path class="cls-12" d="M203.41,149.58h-1a19.38,19.38,0,0,0-.71-1.91,1.45,1.45,0,0,0-.64-.76,2.47,2.47,0,0,0-1-.13h-.76q0,1.62.06,2.79h-.93c.05-1,.08-2.19.08-3.44s0-2.21-.08-3.1h.71c.15,0,.34,0,.57,0h.8c1.47,0,2.2.5,2.2,1.51a1.79,1.79,0,0,1-1.24,1.78v0a1.56,1.56,0,0,1,.9.77A22,22,0,0,1,203.41,149.58Zm-1.54-4.72q0-1.2-1.62-1.2a6.33,6.33,0,0,0-1,.07c0,.58,0,1.37,0,2.38h.57c1.32,0,2-.42,2-1.25Z" transform="translate(-125.83 -86)"/><path class="cls-12" d="M206.41,149.58h-.95c0-1.08.08-2.23.07-3.43s0-2.24-.07-3.11h.95c0,.91-.07,2-.07,3.11S206.37,148.5,206.41,149.58Z" transform="translate(-125.83 -86)"/><path class="cls-12" d="M213.27,143l0,.7c-.66,0-1.35,0-2.05,0v2.44c0,1.1,0,2.24.05,3.44h-.93c0-1.15.05-2.29.06-3.44,0-1,0-1.79,0-2.44q-.75,0-2.1.06l0-.72Z" transform="translate(-125.83 -86)"/><path class="cls-12" d="M216.06,149.58h-1c0-1.08.08-2.23.08-3.43s0-2.24-.08-3.11h1c-.05.91-.07,2-.07,3.11S216,148.5,216.06,149.58Z" transform="translate(-125.83 -86)"/><path class="cls-12" d="M224.42,146.21a3.55,3.55,0,0,1-1,2.6,2.81,2.81,0,0,1-1,.71,3,3,0,0,1-1.2.26,3,3,0,0,1-1.14-.23,3,3,0,0,1-1-.66,3.3,3.3,0,0,1-.91-2.41,3.53,3.53,0,0,1,1-2.61,3,3,0,0,1,1-.71,3.12,3.12,0,0,1,1.2-.26,2.86,2.86,0,0,1,1.15.24,2.71,2.71,0,0,1,.95.66A3.24,3.24,0,0,1,224.42,146.21Zm-.9.11a2.8,2.8,0,0,0-.68-2,2.17,2.17,0,0,0-.71-.53,2.34,2.34,0,0,0-.86-.19,1.93,1.93,0,0,0-1.47.75,3,3,0,0,0-.64,2,2.78,2.78,0,0,0,.68,2,2.14,2.14,0,0,0,1.57.71,1.92,1.92,0,0,0,.82-.21,1.82,1.82,0,0,0,.65-.55A3,3,0,0,0,223.52,146.32Z" transform="translate(-125.83 -86)"/><path class="cls-12" d="M231.68,149.58H231c0-.05-.55-.86-1.65-2.41a22.63,22.63,0,0,1-2-3.07h-.05c.06.8.09,1.5.09,2.07,0,1.13,0,2.27.08,3.41h-.85c.06-1.09.09-2.23.09-3.43s0-2.24-.09-3.11h1a18.81,18.81,0,0,0,1.51,2.29,16.42,16.42,0,0,1,1.82,2.95h0c-.06-.82-.09-1.51-.09-2.08,0-1.24,0-2.3-.07-3.16h.86c-.06.89-.08,1.92-.08,3.11S231.62,148.48,231.68,149.58Z" transform="translate(-125.83 -86)"/><path class="cls-12" d="M241.78,148.78l-.06.75a4.74,4.74,0,0,1-1.35.19,3.37,3.37,0,0,1-2.6-.95,3.31,3.31,0,0,1-.88-2.32,3.55,3.55,0,0,1,1-2.47,3.42,3.42,0,0,1,2.61-1,3.84,3.84,0,0,1,1,.14l-.14.8a3.59,3.59,0,0,0-1-.18,2.28,2.28,0,0,0-1.85.75,2.83,2.83,0,0,0-.63,1.85,2.73,2.73,0,0,0,.73,1.9,2.57,2.57,0,0,0,2,.8A5,5,0,0,0,241.78,148.78Z" transform="translate(-125.83 -86)"/><path class="cls-12" d="M249.48,146.21a3.59,3.59,0,0,1-.95,2.6,3.16,3.16,0,0,1-1,.71,2.91,2.91,0,0,1-1.2.26,3,3,0,0,1-1.14-.23,3,3,0,0,1-1-.66,3.25,3.25,0,0,1-.9-2.41,3.52,3.52,0,0,1,.95-2.61,3,3,0,0,1,1-.71,3,3,0,0,1,1.2-.26,2.81,2.81,0,0,1,1.14.24,2.85,2.85,0,0,1,1,.66A3.24,3.24,0,0,1,249.48,146.21Zm-.89.11a2.76,2.76,0,0,0-.69-2,2,2,0,0,0-.71-.53,2.29,2.29,0,0,0-.86-.19,2,2,0,0,0-.82.21,2.11,2.11,0,0,0-.65.54,3,3,0,0,0-.64,2,2.78,2.78,0,0,0,.69,2,2,2,0,0,0,.71.52,2.11,2.11,0,0,0,.86.19,2,2,0,0,0,.82-.21,1.88,1.88,0,0,0,.64-.55A3,3,0,0,0,248.59,146.32Z" transform="translate(-125.83 -86)"/><path class="cls-12" d="M258.71,149.58h-.95c0-.74-.05-1.83-.16-3.24s-.16-2.27-.16-2.54h-.05c-.34,1.08-.76,2.27-1.28,3.54a11.76,11.76,0,0,0-.77,2.24h-.68a12,12,0,0,0-.72-2.28c-.48-1.28-.78-2.14-.91-2.57l-.26-.93h-.05c0,.46-.08,1.39-.2,2.78s-.18,2.4-.18,3h-.86s.11-1,.34-2.77a36.87,36.87,0,0,0,.35-3.78h1.32a11.88,11.88,0,0,0,.8,2.77,12.62,12.62,0,0,1,.81,2.68h.05a12,12,0,0,1,.9-2.69A11.08,11.08,0,0,0,257,143h1.29c0,.71.07,2,.23,3.76S258.71,149.53,258.71,149.58Z" transform="translate(-125.83 -86)"/><path class="cls-12" d="M265.67,144.66a1.91,1.91,0,0,1-.2,1,1.84,1.84,0,0,1-.66.75,4.21,4.21,0,0,1-2.33.56h-.33c0,.73,0,1.62.08,2.65h-1c.05-1,.07-2.09.07-3.43,0-1.16,0-2.19-.07-3.11h1.38c.36,0,.67,0,.93,0a2.47,2.47,0,0,1,1.53.44,1.38,1.38,0,0,1,.43.53A1.41,1.41,0,0,1,265.67,144.66Zm-.84.29c0-.86-.59-1.29-1.76-1.29a7.77,7.77,0,0,0-1,.08q0,.82,0,2.55h.43C264.08,146.3,264.83,145.85,264.83,145Z" transform="translate(-125.83 -86)"/><path class="cls-12" d="M272.86,149.58H271.8a11.09,11.09,0,0,0-.63-2.11h-2.9a10.48,10.48,0,0,0-.63,2.11h-1c0-.12.43-1.2,1.28-3.22A24.23,24.23,0,0,0,269.2,143h1.2a24.21,24.21,0,0,0,1.23,3.28A22.86,22.86,0,0,1,272.86,149.58Zm-1.93-2.77c-.79-2-1.18-3-1.18-3.14h-.06c0,.1-.4,1.15-1.22,3.14Z" transform="translate(-125.83 -86)"/><path class="cls-12" d="M279.68,149.58H279c0-.05-.55-.86-1.65-2.41a22.63,22.63,0,0,1-2-3.07h-.05c.06.8.09,1.5.09,2.07,0,1.13,0,2.27.08,3.41h-.85c.06-1.09.09-2.23.09-3.43s0-2.24-.09-3.11h1a19.86,19.86,0,0,0,1.52,2.29,16.12,16.12,0,0,1,1.81,2.95H279c-.06-.82-.09-1.5-.09-2.08,0-1.24,0-2.3-.07-3.16h.86c-.05.89-.08,1.92-.08,3.11S279.63,148.48,279.68,149.58Z" transform="translate(-125.83 -86)"/><path class="cls-12" d="M287,143a4.16,4.16,0,0,1-.62,1.08c-.58.85-1,1.43-1.14,1.72a3.68,3.68,0,0,0-.62,1.6c0,.69,0,1.4.07,2.13h-1c.05-.69.07-1.41.07-2.15a3.83,3.83,0,0,0-.58-1.67c-.21-.4-.57-1-1.07-1.73a4.32,4.32,0,0,1-.58-1h1a11.07,11.07,0,0,0,.86,1.6,5.48,5.48,0,0,1,.86,1.95h.05a5.29,5.29,0,0,1,.82-1.92A7.16,7.16,0,0,0,286,143Z" transform="translate(-125.83 -86)"/></svg>